<svg xmlns="http://www.w3.org/2000/svg" width="34.899" height="37.381" viewBox="0 0 34.899 37.381"><defs><style>.a{fill:#fff;}</style></defs><g transform="translate(-17)"><path class="a" d="M50.8,209H46.131a1.1,1.1,0,0,0-1.1,1.1v1.241H41.458a1.1,1.1,0,0,0-1.1,1.1v1.241H36.786a1.1,1.1,0,0,0-1.006.662A10.441,10.441,0,1,0,35.69,227v3.028a1.1,1.1,0,0,0,1.1,1.1H50.8a1.1,1.1,0,0,0,1.1-1.1V210.1A1.1,1.1,0,0,0,50.8,209ZM27.44,228.859a8.25,8.25,0,1,1,8.25-8.25A8.259,8.259,0,0,1,27.44,228.859Zm10.44-13h2.482v13.069H37.881Zm4.673-2.336h2.482v15.405H42.553Zm7.155,15.405H47.226V211.19h2.482Z" transform="translate(0 -193.741)"/><path class="a" d="M289.207,1.086A1.1,1.1,0,0,0,288.113,0h-4.746a1.1,1.1,0,1,0,0,2.19h2.1L273.32,14.339a1.1,1.1,0,1,0,1.549,1.549L287.017,3.739v2.1a1.1,1.1,0,0,0,2.19,0C289.208.475,289.208,1.147,289.207,1.086Z" transform="translate(-237.309)"/><g transform="translate(24.303 20.808)"><path class="a" d="M121.378,289.988a7.809,7.809,0,0,1-1.881-.867.428.428,0,0,1-.042-.337.609.609,0,0,1,.389-.482,1.323,1.323,0,0,1,1.167.162,1.095,1.095,0,0,0,1.481-1.613,3.564,3.564,0,0,0-1.233-.666v-.09a1.1,1.1,0,0,0-2.19,0v.158a2.743,2.743,0,0,0-.923,4.591,9.141,9.141,0,0,0,2.5,1.208.731.731,0,0,1,.549.874,1.04,1.04,0,0,1-1.04.883,1.942,1.942,0,0,1-1.436-.371,1.1,1.1,0,0,0-1.2,1.833,3.965,3.965,0,0,0,1.548.658v.105a1.1,1.1,0,1,0,2.19,0v-.229A3.077,3.077,0,0,0,121.378,289.988Z" transform="translate(-117.025 -285)"/></g></g></svg>