<svg xmlns="http://www.w3.org/2000/svg" width="41.003" height="41.003" viewBox="0 0 41.003 41.003"><g transform="translate(0 -0.001)"><path d="M39.8,484.407H1.2a1.2,1.2,0,0,1,0-2.4H39.8a1.2,1.2,0,0,1,0,2.4Z" transform="translate(0 -443.403)"/><path d="M37.006,374.017H32.2a1.2,1.2,0,0,1-1.2-1.2v-8.809a2,2,0,0,1,2-2h3.2a2,2,0,0,1,2,2v8.809A1.2,1.2,0,0,1,37.006,374.017Zm-3.6-2.4h2.4v-7.208H33.4Zm2.8-7.208h0Z" transform="translate(-28.517 -333.013)"/><path d="M157.006,340.9H152.2a1.2,1.2,0,0,1-1.2-1.2V328.006a2,2,0,0,1,2-2h3.2a2,2,0,0,1,2,2V339.7A1.2,1.2,0,0,1,157.006,340.9Zm-3.6-2.4h2.4V328.407h-2.4Zm2.8-10.091h0Z" transform="translate(-138.907 -299.896)"/><path d="M277.006,290.3H272.2a1.2,1.2,0,0,1-1.2-1.2v-16.1a2,2,0,0,1,2-2h3.2a2,2,0,0,1,2,2v16.1A1.2,1.2,0,0,1,277.006,290.3Zm-3.6-2.4h2.4v-14.5h-2.4Zm2.8-14.5h0Z" transform="translate(-249.297 -249.3)"/><path d="M397.006,198.313H392.2a1.2,1.2,0,0,1-1.2-1.2V173.006a2,2,0,0,1,2-2h3.2a2,2,0,0,1,2,2v24.105A1.2,1.2,0,0,1,397.006,198.313Zm-3.6-2.4h2.4v-22.5h-2.4Zm2.8-22.5h0Z" transform="translate(-359.687 -157.309)"/><path d="M1.2,25.815a1.2,1.2,0,1,1,0-2.4c7.064,0,14.755-2.572,21.656-7.243,6.349-4.3,11.408-9.93,13.88-15.455a1.2,1.2,0,1,1,2.193.981C36.281,7.618,30.913,13.618,24.2,18.159,16.909,23.1,8.74,25.815,1.2,25.815Z" transform="translate(0 -0.002)"/><path d="M376.273,9.745a1.2,1.2,0,0,1-1.16-.891l-1.656-6.181L367.277,4.33a1.2,1.2,0,1,1-.622-2.321L374,.042a1.2,1.2,0,0,1,1.471.849l1.967,7.341a1.2,1.2,0,0,1-1.161,1.512Z" transform="translate(-336.472 0)"/></g></svg>