<svg xmlns="http://www.w3.org/2000/svg" width="35.876" height="35.876" viewBox="0 0 35.876 35.876"><path d="M34.948,12.37,29.5,6.988V1.051A1.051,1.051,0,0,0,28.449,0H7.427A1.051,1.051,0,0,0,6.376,1.051V6.988L.924,12.375A3.133,3.133,0,0,0,0,14.6V32.723a3.157,3.157,0,0,0,3.153,3.153h29.57a3.159,3.159,0,0,0,3.153-3.153V14.6A3.137,3.137,0,0,0,34.948,12.37ZM29.5,9.943l3.836,3.789L29.5,17.543ZM8.479,2.1H27.4V19.631l-3.151,3.13-4.079-4.079a3.157,3.157,0,0,0-4.459,0l-4.079,4.079-3.151-3.13Zm-2.1,7.841v7.6L2.54,13.733ZM2.1,32.288V16.26l8.041,7.987Zm1.486,1.486L17.195,20.168a1.052,1.052,0,0,1,1.486,0L32.288,33.774Zm30.186-1.486-8.041-8.041,8.041-7.987Z"/><g transform="translate(10.581 4.274)"><path d="M164.664,61H152.051a1.051,1.051,0,0,0,0,2.1h12.613a1.051,1.051,0,1,0,0-2.1Z" transform="translate(-151 -61)"/></g><g transform="translate(10.581 8.479)"><path d="M164.664,121H152.051a1.051,1.051,0,0,0,0,2.1h12.613a1.051,1.051,0,1,0,0-2.1Z" transform="translate(-151 -121)"/></g><g transform="translate(10.581 12.683)"><path d="M158.357,181h-6.306a1.051,1.051,0,1,0,0,2.1h6.306a1.051,1.051,0,1,0,0-2.1Z" transform="translate(-151 -181)"/></g></svg>