<svg xmlns="http://www.w3.org/2000/svg" width="44.915" height="40.384" viewBox="0 0 44.915 40.384"><defs><style>.a{fill:#fff;}</style></defs><g transform="translate(0 -43.729)"><g transform="translate(0 63.183)"><path class="a" d="M38.336,233.055h-4.4a6.562,6.562,0,0,0-1.729.232,6.585,6.585,0,0,0-5.867-3.607H18.572a6.585,6.585,0,0,0-5.867,3.607,6.562,6.562,0,0,0-1.729-.232h-4.4A6.587,6.587,0,0,0,0,239.634v7.028a3.952,3.952,0,0,0,3.948,3.948h37.02a3.952,3.952,0,0,0,3.948-3.948v-7.028A6.587,6.587,0,0,0,38.336,233.055Zm-26.344,3.2v11.719H3.948a1.317,1.317,0,0,1-1.316-1.316v-7.028a3.952,3.952,0,0,1,3.948-3.948h4.4a3.937,3.937,0,0,1,1.032.138C12,235.969,11.993,236.113,11.993,236.26Zm18.3,11.719H14.624V236.26a3.952,3.952,0,0,1,3.948-3.948h7.772a3.952,3.952,0,0,1,3.948,3.948Zm11.993-1.316a1.317,1.317,0,0,1-1.316,1.316H32.923V236.26c0-.146-.006-.291-.016-.435a3.94,3.94,0,0,1,1.032-.138h4.4a3.952,3.952,0,0,1,3.948,3.948Z" transform="translate(0 -229.68)"/></g><g transform="translate(2.931 51.883)"><path class="a" d="M39.261,126.5a5.847,5.847,0,1,0,5.847,5.847A5.853,5.853,0,0,0,39.261,126.5Zm0,9.061a3.215,3.215,0,1,1,3.215-3.215A3.218,3.218,0,0,1,39.26,135.565Z" transform="translate(-33.414 -126.504)"/></g><g transform="translate(14.647 43.729)"><path class="a" d="M174.773,43.729a7.811,7.811,0,1,0,7.811,7.811A7.82,7.82,0,0,0,174.773,43.729Zm0,12.99a5.179,5.179,0,1,1,5.179-5.179A5.185,5.185,0,0,1,174.773,56.719Z" transform="translate(-166.962 -43.729)"/></g><g transform="translate(30.291 51.883)"><path class="a" d="M351.141,126.5a5.847,5.847,0,1,0,5.847,5.847A5.853,5.853,0,0,0,351.141,126.5Zm0,9.061a3.215,3.215,0,1,1,3.215-3.215A3.218,3.218,0,0,1,351.141,135.565Z" transform="translate(-345.294 -126.504)"/></g></g></svg>