<svg xmlns="http://www.w3.org/2000/svg" width="22.651" height="40.47" viewBox="0 0 22.651 40.47"><defs><style>.a{fill:#fff;}</style></defs><g transform="translate(-112.498)"><path class="a" d="M133.961,33.025h-3.171a5.909,5.909,0,0,0,1.191-3.564V27.244a1.188,1.188,0,0,0-1.188-1.188h-2.218a5.909,5.909,0,0,0-3.564,1.191V22.588a11.325,11.325,0,1,0-2.376,0v4.659a5.909,5.909,0,0,0-3.564-1.191h-2.218a1.188,1.188,0,0,0-1.188,1.188v2.218a5.909,5.909,0,0,0,1.191,3.564h-3.171a1.188,1.188,0,0,0-1.179,1.335l.634,5.069a1.188,1.188,0,0,0,1.179,1.041h19.007a1.188,1.188,0,0,0,1.179-1.041l.634-5.069A1.188,1.188,0,0,0,133.961,33.025Zm-5.385-4.593h1.03v1.03a3.568,3.568,0,0,1-3.564,3.564h-1.03V32A3.568,3.568,0,0,1,128.575,28.432Zm-13.7-17.107a8.949,8.949,0,1,1,8.949,8.949A8.959,8.959,0,0,1,114.874,11.325Zm3.168,18.136v-1.03h1.03A3.568,3.568,0,0,1,122.635,32v1.03h-1.03A3.568,3.568,0,0,1,118.042,29.461Zm14.236,8.632h-16.91l-.337-2.693h17.583Z" transform="translate(0 0)"/><g transform="translate(120.42 4.752)"><path class="a" d="M217.247,65.411a8.469,8.469,0,0,1-2.041-.94.464.464,0,0,1-.046-.366.661.661,0,0,1,.422-.523,1.435,1.435,0,0,1,1.266.176,1.188,1.188,0,0,0,1.606-1.75,3.867,3.867,0,0,0-1.337-.722v-.1a1.188,1.188,0,1,0-2.376,0v.172a2.976,2.976,0,0,0-1,4.98,9.917,9.917,0,0,0,2.714,1.31.793.793,0,0,1,.6.948,1.128,1.128,0,0,1-1.128.958,2.107,2.107,0,0,1-1.558-.4,1.188,1.188,0,0,0-1.3,1.988,4.3,4.3,0,0,0,1.679.714v.114a1.188,1.188,0,1,0,2.376,0v-.249A3.337,3.337,0,0,0,217.247,65.411Z" transform="translate(-212.525 -60)"/></g></g></svg>