<svg xmlns="http://www.w3.org/2000/svg" width="44.062" height="44.062" viewBox="0 0 44.062 44.062"><g transform="translate(-0.001)"><path d="M42.772,20.74a1.291,1.291,0,0,0,1.291-1.291V3.873a1.291,1.291,0,0,0-1.291-1.291H21.362a5.2,5.2,0,0,0-8.987,0H1.292A1.291,1.291,0,0,0,0,3.873V19.449A1.291,1.291,0,0,0,1.292,20.74H5.251v5.034a3.81,3.81,0,0,0,.786,2.32A5.2,5.2,0,0,0,5.218,35.8a9.083,9.083,0,0,0-5.1,6.763,1.291,1.291,0,1,0,2.549.41A6.5,6.5,0,0,1,13.933,39.7l.073.082a9.033,9.033,0,0,0-.937,2.786,1.291,1.291,0,0,0,2.549.41,6.5,6.5,0,0,1,12.828,0,1.291,1.291,0,1,0,2.549-.41,9.015,9.015,0,0,0-.933-2.788,6.5,6.5,0,0,1,11.335,3.2,1.291,1.291,0,1,0,2.549-.41,9.113,9.113,0,0,0-5.1-6.767,5.206,5.206,0,1,0-7.727,0,9.089,9.089,0,0,0-2.615,1.854A9.048,9.048,0,0,0,25.9,35.8a5.2,5.2,0,0,0-2.489-8.5V20.74ZM32.359,32.315a2.625,2.625,0,1,1,2.625,2.625A2.628,2.628,0,0,1,32.359,32.315ZM41.481,5.163V18.158H23.409V15.577h5.077a3.873,3.873,0,0,0,0-7.745H21.362a5.162,5.162,0,0,0,.712-2.668ZM11.619,14.286a1.291,1.291,0,0,0-1.291,1.291v10.2a1.248,1.248,0,0,1-2.5,0V15.146a4.739,4.739,0,0,1,4.733-4.733h3.1v6.454a1.291,1.291,0,0,0,2.582,0V10.413H28.486a1.291,1.291,0,0,1,0,2.582H22.118a1.291,1.291,0,0,0-1.291,1.291V20.74H12.91V15.577A1.291,1.291,0,0,0,11.619,14.286Zm5.25-11.7a2.625,2.625,0,1,1-2.625,2.625A2.628,2.628,0,0,1,16.868,2.582ZM2.583,18.158V5.163h9.08a5.161,5.161,0,0,0,.714,2.673,7.322,7.322,0,0,0-7.127,7.31v3.012ZM6.455,32.315A2.625,2.625,0,1,1,9.08,34.94,2.628,2.628,0,0,1,6.455,32.315Zm9.661,4.816q-.292.251-.56.525A9.024,9.024,0,0,0,12.943,35.8a5.2,5.2,0,0,0-.819-7.707,3.809,3.809,0,0,0,.786-2.32V23.322h7.917v3.929A5.207,5.207,0,0,0,18.17,35.8,9.06,9.06,0,0,0,16.117,37.131Zm8.54-4.816a2.625,2.625,0,1,1-2.625-2.625A2.628,2.628,0,0,1,24.657,32.315Z"/></g></svg>