<svg xmlns="http://www.w3.org/2000/svg" width="40" height="40" viewBox="0 0 40 40"><circle cx="1" cy="1" r="1" transform="translate(6 5)"/><path d="M21.484,0H4.3A4.3,4.3,0,0,0,0,4.3V35.7A4.3,4.3,0,0,0,4.3,40H21.484a4.3,4.3,0,0,0,4.3-4.3V4.3A4.3,4.3,0,0,0,21.484,0Zm1.953,35.7a1.955,1.955,0,0,1-1.953,1.953H4.3A1.955,1.955,0,0,1,2.344,35.7v-.391H23.438Zm0-2.734H2.344V4.3A1.955,1.955,0,0,1,4.3,2.344H21.484A1.955,1.955,0,0,1,23.438,4.3Z"/><path d="M131.172,62.344H134.3a1.172,1.172,0,0,0,0-2.344h-3.125a1.172,1.172,0,0,0,0,2.344Z" transform="translate(-119.844 -55.313)"/><path d="M89.891,139.1a4.3,4.3,0,1,0-6.5,0A6.644,6.644,0,0,0,80,144.891v.781a1.172,1.172,0,0,0,1.172,1.172H92.109a1.172,1.172,0,0,0,1.172-1.172v-.781A6.644,6.644,0,0,0,89.891,139.1Zm-3.25-4.759a1.953,1.953,0,1,1-1.953,1.953A1.955,1.955,0,0,1,86.641,134.344ZM82.361,144.5a4.3,4.3,0,0,1,8.559,0Z" transform="translate(-73.75 -121.688)"/><path d="M92.109,352H81.172a1.172,1.172,0,0,0,0,2.344H92.109a1.172,1.172,0,0,0,0-2.344Z" transform="translate(-73.75 -324.5)"/><circle cx="1.172" cy="1.172" r="1.172" transform="translate(28.281 6.785)"/><path d="M406.427,44.77a1.172,1.172,0,1,0-1.657,1.657,3.52,3.52,0,0,1,0,4.972,1.172,1.172,0,1,0,1.657,1.657A5.866,5.866,0,0,0,406.427,44.77Z" transform="translate(-372.831 -40.956)"/><path d="M448.853,2.344A1.172,1.172,0,1,0,447.2,4a8.2,8.2,0,0,1,0,11.6,1.172,1.172,0,1,0,1.657,1.657,10.547,10.547,0,0,0,0-14.916Z" transform="translate(-411.942 -1.844)"/></svg>